 <svg version="1.0" xmlns="http://www.w3.org/2000/svg"
            width="100px" height="100px" viewBox="0 0 512.000000 512.000000"
            preserveAspectRatio="xMidYMid meet">
           <g transform="translate(0.000000,512.000000) scale(0.100000,-0.100000)"
           fill="#800080" stroke="none">
           <path d="M2505 5084 c-42 -21 -352 -332 -370 -371 -26 -55 7 -103 71 -103 21
           0 54 26 151 122 l123 122 0 -511 0 -511 -257 -142 c-142 -79 -266 -152 -275
           -162 -41 -46 -9 -121 50 -121 18 0 128 55 292 147 145 81 269 145 275 144 19
           -5 1254 -692 1255 -698 0 -8 -1245 -700 -1260 -700 -7 0 -293 156 -636 347
           -475 265 -620 351 -611 359 7 7 111 67 232 134 121 67 230 131 243 143 46 42
           12 127 -51 127 -29 0 -575 -308 -614 -346 l-33 -32 0 -809 0 -809 -446 -248
           c-245 -136 -447 -246 -449 -244 -2 2 16 73 41 158 24 85 44 162 44 171 0 9 -9
           28 -21 43 -27 34 -77 36 -106 3 -20 -22 -153 -470 -153 -516 0 -41 37 -88 83
           -105 62 -23 463 -136 482 -136 24 0 65 46 65 74 0 51 -35 72 -195 116 -82 23
           -154 45 -158 47 -5 3 13 18 40 33 129 73 827 461 834 463 4 1 104 -52 222
           -118 l214 -120 6 -95 c13 -186 60 -331 156 -476 139 -211 349 -359 599 -421
           93 -23 331 -23 424 0 247 61 457 207 593 413 97 144 150 303 162 484 l6 95
           213 119 c117 65 216 119 219 119 15 2 884 -488 877 -494 -4 -4 -74 -26 -157
           -49 -160 -44 -195 -65 -195 -116 0 -28 41 -74 65 -74 23 0 476 130 506 146 27
           14 59 68 59 100 0 43 -134 490 -153 512 -29 32 -79 30 -106 -4 -12 -15 -21
           -34 -21 -43 0 -9 20 -86 44 -171 25 -85 43 -156 41 -158 -2 -2 -204 108 -449
           244 l-446 248 0 297 c0 285 -1 297 -21 323 -27 34 -77 36 -107 3 -22 -23 -22
           -29 -22 -329 l0 -306 -180 -101 c-99 -56 -184 -101 -189 -101 -5 0 -12 17 -16
           38 -12 67 -72 201 -129 286 -70 105 -207 236 -314 300 -95 56 -248 112 -342
           123 l-65 8 -3 105 -2 105 611 340 c336 187 615 342 620 343 5 2 9 -110 9 -268
           l0 -271 25 -24 c31 -32 69 -32 100 0 l25 24 0 362 0 361 -32 32 c-18 18 -331
           198 -695 400 l-663 369 0 510 0 511 123 -122 c97 -96 130 -122 151 -122 64 0
           97 48 71 104 -20 42 -343 362 -379 376 -38 14 -66 13 -101 -6z m-635 -2579
           l610 -340 -2 -105 -3 -105 -60 -7 c-317 -40 -631 -289 -754 -598 -16 -41 -33
           -92 -36 -113 -4 -20 -11 -37 -16 -37 -5 0 -89 45 -186 99 l-178 99 -3 727 c-1
           458 1 725 7 723 6 -1 285 -156 621 -343z m804 -705 c178 -26 329 -103 461
           -235 139 -139 210 -284 236 -483 30 -225 -52 -476 -214 -648 -319 -342 -842
           -351 -1173 -20 -138 138 -214 297 -237 497 -27 240 70 500 252 672 182 172
           431 252 675 217z"/>
           <path d="M2033 1294 c-20 -20 -24 -31 -19 -57 11 -59 33 -67 177 -67 l129 0 0
           -49 0 -49 -131 -4 c-129 -3 -131 -3 -155 -31 -13 -15 -24 -37 -24 -47 0 -10
           11 -32 24 -47 24 -28 26 -28 155 -31 l131 -4 0 -49 0 -49 -120 0 c-67 0 -130
           -5 -144 -11 -29 -14 -51 -59 -41 -89 14 -46 41 -52 220 -48 l167 3 34 37 34
           38 0 249 c0 237 -1 250 -21 275 -39 50 -65 56 -234 56 -154 0 -156 0 -182 -26z"/>
           <path d="M2629 1291 l-29 -29 0 -272 0 -272 30 -30 30 -30 138 4 c150 4 173
           11 231 69 67 66 76 98 76 259 0 163 -10 195 -81 264 -53 52 -107 66 -247 66
           -118 0 -119 0 -148 -29z m280 -137 c36 -25 51 -75 51 -164 0 -141 -31 -180
           -142 -180 l-68 0 0 180 0 180 68 0 c46 0 75 -5 91 -16z"/>
           </g>
           </svg>